<mxfile>
    <diagram id="rcNeYlzwHGnmFr_wmku7" name="Page-1">
        <mxGraphModel dx="1333" dy="1673" grid="1" gridSize="10" guides="1" tooltips="1" connect="1" arrows="1" fold="1" page="1" pageScale="1" pageWidth="827" pageHeight="1169" math="0" shadow="0">
            <root>
                <mxCell id="0"/>
                <mxCell id="1" parent="0"/>
                <mxCell id="5" style="edgeStyle=orthogonalEdgeStyle;rounded=0;orthogonalLoop=1;jettySize=auto;html=1;entryX=1;entryY=0.5;entryDx=0;entryDy=0;" edge="1" parent="1" source="2" target="3">
                    <mxGeometry relative="1" as="geometry"/>
                </mxCell>
                <mxCell id="6" value="" style="edgeStyle=orthogonalEdgeStyle;rounded=0;orthogonalLoop=1;jettySize=auto;html=1;" edge="1" parent="1" source="2" target="4">
                    <mxGeometry relative="1" as="geometry"/>
                </mxCell>
                <mxCell id="2" value="&lt;div&gt;&lt;b&gt;&lt;span style=&quot;font-size: 17px&quot;&gt;CORE&lt;/span&gt;&lt;/b&gt;&lt;/div&gt;&lt;div&gt;&lt;b&gt;&lt;br&gt;&lt;/b&gt;&lt;/div&gt;&lt;font style=&quot;font-weight: bold&quot;&gt;&lt;div&gt;&lt;span&gt;Core(const std::string &amp;amp;)&lt;/span&gt;&lt;/div&gt;&lt;/font&gt;&lt;font style=&quot;font-weight: bold ; font-size: 12px&quot;&gt;&lt;div&gt;&lt;span&gt;void init(void)&lt;/span&gt;&lt;/div&gt;&lt;div&gt;&lt;span&gt;void run(void)&lt;/span&gt;&lt;/div&gt;&lt;/font&gt;" style="whiteSpace=wrap;html=1;fillColor=#a20025;strokeColor=#6F0000;fontColor=#ffffff;align=center;" vertex="1" parent="1">
                    <mxGeometry x="272" y="140" width="240" height="90" as="geometry"/>
                </mxCell>
                <mxCell id="14" style="edgeStyle=orthogonalEdgeStyle;rounded=0;orthogonalLoop=1;jettySize=auto;html=1;entryX=0.5;entryY=0;entryDx=0;entryDy=0;" edge="1" parent="1" source="3" target="13">
                    <mxGeometry relative="1" as="geometry"/>
                </mxCell>
                <mxCell id="17" style="edgeStyle=orthogonalEdgeStyle;rounded=0;orthogonalLoop=1;jettySize=auto;html=1;entryX=1;entryY=0.5;entryDx=0;entryDy=0;" edge="1" parent="1" source="3" target="15">
                    <mxGeometry relative="1" as="geometry"/>
                </mxCell>
                <mxCell id="33" style="edgeStyle=orthogonalEdgeStyle;rounded=0;orthogonalLoop=1;jettySize=auto;html=1;entryX=1;entryY=0.5;entryDx=0;entryDy=0;" edge="1" parent="1" source="3" target="16">
                    <mxGeometry relative="1" as="geometry"/>
                </mxCell>
                <mxCell id="3" value="&lt;b&gt;&lt;font&gt;&lt;span style=&quot;font-size: 17px&quot;&gt;ILib&lt;/span&gt;&lt;br&gt;&lt;div style=&quot;text-align: left&quot;&gt;virtual void run()&lt;/div&gt;&lt;div style=&quot;text-align: left&quot;&gt;~Ilib() = default&lt;/div&gt;&lt;/font&gt;&lt;/b&gt;" style="whiteSpace=wrap;html=1;fillColor=#a20025;strokeColor=#6F0000;fontColor=#ffffff;" vertex="1" parent="1">
                    <mxGeometry x="-120" y="155" width="120" height="60" as="geometry"/>
                </mxCell>
                <mxCell id="30" style="edgeStyle=orthogonalEdgeStyle;rounded=0;orthogonalLoop=1;jettySize=auto;html=1;entryX=0.41;entryY=-0.043;entryDx=0;entryDy=0;entryPerimeter=0;" edge="1" parent="1" source="4" target="27">
                    <mxGeometry relative="1" as="geometry"/>
                </mxCell>
                <mxCell id="32" style="edgeStyle=orthogonalEdgeStyle;rounded=0;orthogonalLoop=1;jettySize=auto;html=1;entryX=0;entryY=0.5;entryDx=0;entryDy=0;" edge="1" parent="1" source="4" target="31">
                    <mxGeometry relative="1" as="geometry"/>
                </mxCell>
                <mxCell id="4" value="&lt;b&gt;&lt;font&gt;&lt;span style=&quot;font-size: 17px&quot;&gt;IGame&lt;br&gt;&lt;/span&gt;&lt;br&gt;&lt;div style=&quot;text-align: left&quot;&gt;virtual void play()&lt;/div&gt;&lt;div style=&quot;text-align: left&quot;&gt;virtual void eventManager()&lt;/div&gt;&lt;div style=&quot;text-align: left&quot;&gt;virtual void display()&lt;/div&gt;&lt;br&gt;&lt;/font&gt;&lt;/b&gt;" style="whiteSpace=wrap;html=1;fillColor=#a20025;strokeColor=#6F0000;fontColor=#ffffff;align=center;" vertex="1" parent="1">
                    <mxGeometry x="740" y="135.44" width="280.83" height="99.12" as="geometry"/>
                </mxCell>
                <mxCell id="12" style="edgeStyle=orthogonalEdgeStyle;rounded=0;orthogonalLoop=1;jettySize=auto;html=1;" edge="1" parent="1" source="7" target="2">
                    <mxGeometry relative="1" as="geometry"/>
                </mxCell>
                <mxCell id="7" value="&lt;div style=&quot;text-align: center&quot;&gt;&lt;b&gt;&lt;span style=&quot;font-size: 15px&quot;&gt;DLLoader&lt;/span&gt;&lt;/b&gt;&lt;/div&gt;&lt;b&gt;&lt;div style=&quot;text-align: center&quot;&gt;&lt;b&gt;DLLoader(const sttd::string &amp;amp;) noexcept(false)&lt;/b&gt;&lt;/div&gt;&lt;font&gt;&lt;div style=&quot;text-align: center&quot;&gt;&lt;b&gt;~DLLoader() noexcept(false)&lt;/b&gt;&lt;/div&gt;&lt;div style=&quot;text-align: center&quot;&gt;&lt;b&gt;DLLoader &amp;amp;operator= (DLLoader const &amp;amp;)&lt;/b&gt;&lt;/div&gt;&lt;div style=&quot;text-align: center&quot;&gt;&lt;b&gt;T *getInstance(std::string)&lt;/b&gt;&lt;/div&gt;&lt;/font&gt;&lt;/b&gt;" style="whiteSpace=wrap;html=1;fillColor=#a20025;strokeColor=#6F0000;fontColor=#ffffff;align=left;" vertex="1" parent="1">
                    <mxGeometry x="241" y="-90" width="302" height="100" as="geometry"/>
                </mxCell>
                <mxCell id="13" value="&lt;b&gt;LibNcurses&lt;/b&gt;" style="whiteSpace=wrap;html=1;fillColor=#0050ef;strokeColor=#001DBC;fontColor=#ffffff;" vertex="1" parent="1">
                    <mxGeometry x="-120" y="320" width="120" height="60" as="geometry"/>
                </mxCell>
                <mxCell id="15" value="&lt;b&gt;LibSfml&lt;/b&gt;" style="whiteSpace=wrap;html=1;fillColor=#0050ef;strokeColor=#001DBC;fontColor=#ffffff;" vertex="1" parent="1">
                    <mxGeometry x="-230" y="10" width="120" height="60" as="geometry"/>
                </mxCell>
                <mxCell id="16" value="&lt;b&gt;LibSdl2&lt;/b&gt;" style="whiteSpace=wrap;html=1;fillColor=#0050ef;strokeColor=#001DBC;fontColor=#ffffff;" vertex="1" parent="1">
                    <mxGeometry x="-370" y="155" width="120" height="60" as="geometry"/>
                </mxCell>
                <mxCell id="27" value="&lt;b&gt;Nibbler&lt;/b&gt;" style="whiteSpace=wrap;html=1;fillColor=#008a00;strokeColor=#005700;fontColor=#ffffff;" vertex="1" parent="1">
                    <mxGeometry x="1080" y="260" width="120" height="60" as="geometry"/>
                </mxCell>
                <mxCell id="31" value="&lt;b&gt;Pacman&lt;/b&gt;" style="whiteSpace=wrap;html=1;fillColor=#008a00;strokeColor=#005700;fontColor=#ffffff;" vertex="1" parent="1">
                    <mxGeometry x="1020.83" y="-30" width="120" height="60" as="geometry"/>
                </mxCell>
                <mxCell id="34" value="&lt;b&gt;&lt;font style=&quot;font-size: 27px&quot; color=&quot;#ffff33&quot;&gt;&lt;u&gt;UML ARCADE&lt;/u&gt;&lt;/font&gt;&lt;/b&gt;" style="whiteSpace=wrap;html=1;" vertex="1" parent="1">
                    <mxGeometry x="40" y="-320" width="630" height="100" as="geometry"/>
                </mxCell>
            </root>
        </mxGraphModel>
    </diagram>
</mxfile>